DataType=double
version=3
OpenSimVersion=4.3-2021-08-27-4bc7ad9
endheader
time	ground_force_r_vx	ground_force_r_vy	ground_force_r_vz	ground_force_r_px	ground_force_r_py	ground_force_r_pz	ground_force_l_vx	ground_force_l_vy	ground_force_l_vz	ground_force_l_px	ground_force_l_py	ground_force_l_pz
0.352	-211.3771915709252	1508.313671665118	-46.40807338943966	0	0	0	0	0	0	0	0	0
0.35382297	-1858.006482890912	1945.795863445065	-738.0365594498643	0	0	0	0	0	0	0	0	0
0.35564594	-2845.810134976932	3684.345648399884	-1110.881190887762	0	0	0	0	0	0	0	0	0
0.35746891	-2852.453004705541	6861.560913058805	-988.7436135179482	0	0	0	0	0	0	0	0	0
0.35929188	-2091.139297331393	10462.11815232871	-431.6248422145632	0	0	0	0	0	0	0	0	0
0.36111485	-1178.865341285462	13293.30929808979	292.3692961347986	0	0	0	0	0	0	0	0	0
0.36293782	-700.7616738608244	14816.03960458591	864.5730983787989	0	0	0	0	0	0	0	0	0
0.36476079	-817.610763565721	15221.60122319657	1093.678580873191	0	0	0	0	0	0	0	0	0
0.36658376	-1235.95979131555	15033.62709681496	990.3220652959183	0	0	0	0	0	0	0	0	0
0.36840673	-1507.520350711576	14730.01209484862	714.1105989076918	0	0	0	0	0	0	0	0	0
0.3702297	-1363.277872382867	14565.8802939672	454.5302732128182	0	0	0	0	0	0	0	0	0
0.37205267	-837.7855284072114	14545.81979913461	323.4281143465702	0	0	0	0	0	0	0	0	0
0.37387564	-158.6701196953891	14500.1502977552	317.1940043962626	0	0	0	0	0	0	0	0	0
0.37569861	462.1730607052031	14252.5774663398	362.6203959003508	0	0	0	0	0	0	0	0	0
0.37752158	972.4422874927055	13794.09659021318	398.659876497885	0	0	0	0	0	0	0	0	0
0.37934456	1464.282641488955	13292.16084504991	419.8953717681637	0	0	0	0	0	0	0	0	0
0.38116753	2021.172186184704	12840.02809440263	451.4788640507404	0	0	0	0	0	0	0	0	0
0.3829905	2554.010867662852	12142.30650157552	495.3497648463217	0	0	0	0	0	0	0	0	0
0.38481347	2788.037524674356	10573.40576934361	509.9655399638846	0	0	0	0	0	0	0	0	0
0.38663644	2467.757681848462	7777.181940407569	443.6963010625013	0	0	0	0	0	0	0	0	0
0.38845941	1630.693962524161	4264.564126427194	287.96216746138	0	0	0	0	0	0	0	0	0
0.39028238	658.1056658515223	1229.862111533437	99.62124127812257	0	0	0	0	0	0	0	0	0
0.39210535	0	0	0	0	0	0	0	0	0	0	0	0
0.39392832	0	0	0	0	0	0	0	0	0	0	0	0
0.39575129	0	0	0	0	0	0	0	0	0	0	0	0
0.39757426	0	0	0	0	0	0	0	0	0	0	0	0
0.39939723	0	0	0	0	0	0	0	0	0	0	0	0
0.4012202	0	0	0	0	0	0	0	0	0	0	0	0
0.40304317	0	0	0	0	0	0	0	0	0	0	0	0
0.40486614	0	0	0	0	0	0	0	0	0	0	0	0
0.40668911	0	0	0	0	0	0	0	0	0	0	0	0
0.40851208	0	0	0	0	0	0	0	0	0	0	0	0
0.41033505	0	0	0	0	0	0	0	0	0	0	0	0
0.41215802	0	0	0	0	0	0	0	0	0	0	0	0
0.41398099	0	0	0	0	0	0	0	0	0	0	0	0
0.41580396	0	0	0	0	0	0	0	0	0	0	0	0
0.41762693	0	0	0	0	0	0	0	0	0	0	0	0
0.4194499	0	0	0	0	0	0	0	0	0	0	0	0
0.42127287	0	0	0	0	0	0	0	0	0	0	0	0
0.42309584	0	0	0	0	0	0	0	0	0	0	0	0
0.42491881	0	0	0	0	0	0	0	0	0	0	0	0
0.42674178	0	0	0	0	0	0	0	0	0	0	0	0
0.42856475	0	0	0	0	0	0	0	0	0	0	0	0
0.43038772	0	0	0	0	0	0	0	0	0	0	0	0
0.4322107	0	0	0	0	0	0	0	0	0	0	0	0
0.43403367	0	0	0	0	0	0	0	0	0	0	0	0
0.43585664	0	0	0	0	0	0	0	0	0	0	0	0
0.43767961	0	0	0	0	0	0	0	0	0	0	0	0
0.43950258	0	0	0	0	0	0	0	0	0	0	0	0
0.44132555	0	0	0	0	0	0	0	0	0	0	0	0
